<?xml version="1.0" encoding="UTF-8"?>
<svg width="190px" height="190px" viewBox="0 0 190 190" version="1.1" xmlns="http://www.w3.org/2000/svg" xmlns:xlink="http://www.w3.org/1999/xlink">
    <!-- Generator: Sketch 60.1 (88133) - https://sketch.com -->
    <title>emblem-light</title>
    <desc>Created with Sketch.</desc>
    <g id="Page-1" stroke="none" stroke-width="1" fill="none" fill-rule="evenodd">
        <g id="og-white" transform="translate(-22.000000, 0.000000)">
            <path d="M61.7239712,61.3436237 C58.631224,46.362877 57.9675112,34.8727722 59.9666331,26.5293551 C61.1555965,21.5671678 63.3293088,17.5190846 66.6346064,14.5984631 C70.1241394,11.5150478 74.5360327,10.0020122 79.493257,10.0020122 C87.6712013,10.0020122 96.2682602,13.7273214 105.455725,20.8044264 C109.20312,23.6910458 113.092437,27.170411 117.131651,31.2444746 C117.45314,30.8310265 117.816542,30.4410453 118.22143,30.0806152 C129.64098,19.9149716 139.255245,13.5989272 147.478408,11.1636507 C152.367899,9.715636 156.958526,9.57768202 161.138936,10.983031 C165.551631,12.4664684 169.06766,15.5329489 171.548314,19.8281091 C175.642288,26.9166735 176.721918,36.2310983 175.195595,47.7320243 C174.573451,52.4199112 173.50985,57.5263831 172.007094,63.0593153 C172.574045,63.1277086 173.142416,63.2532808 173.705041,63.4395297 C188.193932,68.2358678 198.453582,73.3937462 204.665021,79.2882839 C208.360669,82.7953831 210.773972,86.6998434 211.646365,91.0218204 C212.567176,95.5836746 211.669313,100.159332 209.191548,104.451297 C205.105211,111.529614 197.591643,117.11221 186.887587,121.534031 C182.589552,123.309539 177.726579,124.917559 172.293259,126.363748 C172.541176,126.92292 172.733521,127.516759 172.862138,128.139758 C175.954886,143.120505 176.618598,154.61061 174.619477,162.954027 C173.430513,167.916214 171.256801,171.964297 167.951503,174.884919 C164.46197,177.968334 160.050077,179.48137 155.092853,179.48137 C146.914908,179.48137 138.31785,175.756061 129.130385,168.678956 C125.343104,165.761613 121.410866,162.238839 117.325434,158.108619 C116.905075,158.765474 116.388968,159.376011 115.77857,159.919385 C104.35902,170.085028 94.744755,176.401073 86.5215915,178.836349 C81.6321009,180.284364 77.0414736,180.422318 72.8610636,179.016969 C68.4483686,177.533532 64.9323404,174.467051 62.4516862,170.171891 C58.3577116,163.083327 57.2780823,153.768902 58.8044053,142.267976 C59.449038,137.410634 60.56762,132.103898 62.1575891,126.339009 C61.5361041,126.276104 60.9120754,126.144816 60.2949591,125.940529 C45.8060684,121.144191 35.5464184,115.986312 29.3349789,110.091775 C25.6393312,106.584675 23.2260275,102.680215 22.3536352,98.3582381 C21.4328237,93.7963839 22.3306866,89.2207269 24.8084524,84.9287618 C28.8947886,77.8504443 36.4083565,72.2678481 47.1124133,67.8460273 C51.5385143,66.0176154 56.5637208,64.366822 62.1939394,62.8874674 C61.9933393,62.3969171 61.8349374,61.8811235 61.7239712,61.3436237 Z" id="Path" fill="#002C4B" fill-rule="nonzero" transform="translate(117.000000, 95.000000) scale(-1, 1) translate(-117.000000, -95.000000) "></path>
            <path d="M131.8435,65 C133.634576,65 135.288844,65.958025 136.180256,67.5115174 L150.812461,93.0115174 C151.696786,94.5526583 151.696786,96.4473417 150.812461,97.9884826 L143.235,111.193 L143.235323,91.7391304 C143.235323,88.9777067 140.996746,86.7391304 138.235323,86.7391304 C135.473899,86.7391304 133.235323,88.9777067 133.235323,91.7391304 L133.235371,125.802477 C132.789059,125.931867 132.321144,126 131.8435,126 L129.235,126 L129.235323,111.73913 C129.235323,108.977707 126.996746,106.73913 124.235323,106.73913 C121.473899,106.73913 119.235323,108.977707 119.235323,111.73913 L119.235,126 L115.235,126 L115.235323,77.7391304 C115.235323,74.9777067 112.996746,72.7391304 110.235323,72.7391304 C107.473899,72.7391304 105.235323,74.9777067 105.235323,77.7391304 L105.235,126 L102.632205,126 C102.152766,126 101.683131,125.931354 101.235306,125.801016 L101.235323,96.7391304 C101.235323,93.9777067 98.9967465,91.7391304 96.2353227,91.7391304 C93.473899,91.7391304 91.2353227,93.9777067 91.2353227,96.7391304 L91.235,111.184 L83.6632438,97.9884826 C82.7789187,96.4473417 82.7789187,94.5526583 83.6632438,93.0115174 L98.2954489,67.5115174 C99.1868614,65.958025 100.841129,65 102.632205,65 L131.8435,65 Z" id="Polygon-2" fill="#FFD94C"></path>
            <path d="M76.8601729,108.357758 C78.1715224,107.608286 79.8360246,108.074601 80.5779424,109.399303 L80.5779424,109.399303 L81.0525843,110.24352 C84.8563392,116.982993 88.8190116,123.380176 92.9406016,129.435068 C97.8078808,136.585427 103.28184,143.82411 109.362479,151.151115 C110.316878,152.30114 110.184944,154.011176 109.065686,154.997937 L109.065686,154.997937 L108.454208,155.534625 C88.3465389,173.103314 75.2778188,176.612552 69.2480482,166.062341 C63.3500652,155.742717 65.4844915,136.982888 75.6513274,109.782853 C75.876818,109.179582 76.3045861,108.675291 76.8601729,108.357758 Z M162.534177,129.041504 C163.986131,128.785177 165.375496,129.742138 165.65963,131.194242 L165.65963,131.194242 L165.812815,131.986376 C170.782365,157.995459 167.283348,171 155.315764,171 C143.609745,171 128.708724,159.909007 110.612702,137.727022 C110.211349,137.235047 109.994572,136.617371 110,135.981509 C110.013158,134.480686 111.235785,133.274651 112.730918,133.287756 L112.730918,133.287756 L113.684654,133.294531 C121.305698,133.335994 128.714387,133.071591 135.910723,132.501323 C144.409039,131.82788 153.283523,130.674607 162.534177,129.041504 Z M169.408726,73.8119663 C169.932139,72.4026903 171.508386,71.6634537 172.954581,72.149012 L172.954581,72.149012 L173.742552,72.4154854 C199.583763,81.217922 209.402356,90.8916805 203.198332,101.436761 C197.129904,111.751366 179.484347,119.260339 150.26166,123.963678 C149.613529,124.067994 148.948643,123.945969 148.382735,123.618843 C147.047025,122.846729 146.602046,121.158214 147.388848,119.847438 L147.388848,119.847438 L147.889328,119.0105 C151.877183,112.31633 155.481358,105.654262 158.701854,99.0242957 C162.50501,91.1948179 166.073967,82.7907081 169.408726,73.8119663 Z M83.7383398,66.0363218 C84.3864708,65.9320063 85.0513565,66.0540315 85.6172646,66.3811573 C86.9529754,67.153271 87.3979538,68.8417862 86.6111517,70.1525615 L86.6111517,70.1525615 L86.1106718,70.9895001 C82.1228168,77.6836699 78.5186416,84.3457379 75.2981462,90.9757043 C71.49499,98.8051821 67.9260328,107.209292 64.5912744,116.188034 C64.0678608,117.59731 62.4916142,118.336546 61.045419,117.850988 L61.045419,117.850988 L60.2574475,117.584515 C34.4162372,108.782078 24.597644,99.1083195 30.8016679,88.5632391 C36.8700957,78.2486335 54.515653,70.7396611 83.7383398,66.0363218 Z M125.545792,34.4653746 C145.653461,16.8966864 158.722181,13.3874478 164.751952,23.9376587 C170.649935,34.2572826 168.515508,53.0171122 158.348673,80.2171474 C158.123182,80.8204179 157.695414,81.324709 157.139827,81.6422422 C155.828478,82.3917144 154.163975,81.9253986 153.422058,80.6006966 L153.422058,80.6006966 L152.947416,79.7564798 C149.143661,73.0170065 145.180988,66.6198239 141.059398,60.564932 C136.192119,53.4145727 130.71816,46.1758903 124.637521,38.8488847 C123.683122,37.6988602 123.815056,35.9888243 124.934314,35.0020629 L124.934314,35.0020629 Z M79.6842361,18 C91.3902551,18 106.291276,29.0909926 124.387298,51.2729777 C124.788651,51.7649527 125.005428,52.3826288 125,53.0184911 C124.986842,54.5193144 123.764215,55.7253489 122.269082,55.7122445 L122.269082,55.7122445 L121.315346,55.7054689 C113.694302,55.6640063 106.285613,55.9284091 99.0892772,56.4986773 C90.5909612,57.17212 81.7164767,58.325393 72.4658235,59.9584962 C71.0138691,60.2148231 69.6245044,59.2578618 69.3403697,57.805758 L69.3403697,57.805758 L69.1871846,57.0136235 C64.2176347,31.0045412 67.7166519,18 79.6842361,18 Z" id="Combined-Shape" fill="#FF4154"></path>
        </g>
    </g>
</svg>