<?xml version="1.0" encoding="UTF-8"?>
<svg width="943px" height="190px" viewBox="0 0 943 190" version="1.1" xmlns="http://www.w3.org/2000/svg" xmlns:xlink="http://www.w3.org/1999/xlink">
    <!-- Generator: Sketch 60.1 (88133) - https://sketch.com -->
    <title>logo-light</title>
    <desc>Created with Sketch.</desc>
    <g id="Page-1" stroke="none" stroke-width="1" fill="none" fill-rule="evenodd">
        <g id="og-white">
            <path d="M260.539594,140 L260.539594,108.137 L277.954594,108.137 L294.337594,140 L316.267594,140 L299.368594,105.17 C304.442594,103.106 308.441594,99.537 311.365594,94.463 C314.289594,89.389 315.751594,84.186 315.751594,78.854 C315.751594,70.254 313.322094,63.245 308.463094,57.827 C303.604094,52.409 295.756594,49.7 284.920594,49.7 L284.920594,49.7 L240.931594,49.7 L240.931594,140 L260.539594,140 Z M285.178594,89.561 L260.539594,89.561 L260.539594,68.276 L285.178594,68.276 C288.790594,68.276 291.392094,69.2865 292.983094,71.3075 C294.574094,73.3285 295.369594,75.844 295.369594,78.854 C295.369594,85.992 291.972594,89.561 285.178594,89.561 L285.178594,89.561 Z M345.618745,141.548 C356.110745,141.548 364.667745,137.549 371.289745,129.551 L371.289745,129.551 L360.453745,118.715 C356.583745,123.359 351.638745,125.681 345.618745,125.681 C341.920745,125.681 338.867745,124.6705 336.459745,122.6495 C334.051745,120.6285 332.761745,117.554 332.589745,113.426 L332.589745,113.426 L374.772745,113.426 C375.116745,111.19 375.288745,107.965 375.288745,103.751 C375.288745,93.603 372.536745,85.863 367.032745,80.531 C361.528745,75.199 354.390745,72.533 345.618745,72.533 C335.986745,72.533 328.354245,75.629 322.721245,81.821 C317.088245,88.013 314.271745,96.398 314.271745,106.976 C314.271745,117.812 317.066745,126.283 322.656745,132.389 C328.246745,138.495 335.900745,141.548 345.618745,141.548 Z M357.357745,99.365 L332.718745,99.365 C333.148745,95.925 334.438745,93.2375 336.588745,91.3025 C338.738745,89.3675 341.490745,88.4 344.844745,88.4 C352.240745,88.4 356.411745,92.055 357.357745,99.365 L357.357745,99.365 Z M401.930896,141.548 C408.896896,141.548 414.357896,139.398 418.313896,135.098 L418.313896,135.098 L418.313896,140 L436.889896,140 L436.889896,98.333 C436.889896,81.133 427.558896,72.533 408.896896,72.533 C398.146896,72.533 388.729896,75.285 380.645896,80.789 L380.645896,80.789 L386.450896,95.108 C393.416896,90.464 400.468896,88.142 407.606896,88.142 C410.960896,88.142 413.583896,88.9375 415.475896,90.5285 C417.367896,92.1195 418.313896,94.42 418.313896,97.43 L418.313896,97.43 L418.313896,101.042 C414.873896,99.494 410.057896,98.72 403.865896,98.72 C396.727896,98.72 390.492896,100.5475 385.160896,104.2025 C379.828896,107.8575 377.162896,113.082 377.162896,119.876 C377.162896,126.842 379.463396,132.1955 384.064396,135.9365 C388.665396,139.6775 394.620896,141.548 401.930896,141.548 Z M405.542896,125.81 C398.834896,125.81 395.480896,123.875 395.480896,120.005 C395.480896,115.791 399.350896,113.684 407.090896,113.684 C411.132896,113.684 414.873896,114.2 418.313896,115.232 L418.313896,115.232 L418.313896,121.166 C414.443896,124.262 410.186896,125.81 405.542896,125.81 Z M472.820047,141.548 C487.784047,141.548 497.459047,134.109 501.845047,119.231 L501.845047,119.231 L483.914047,114.071 C481.936047,120.435 478.238047,123.617 472.820047,123.617 C469.380047,123.617 466.542047,122.0905 464.306047,119.0375 C462.070047,115.9845 460.952047,112.007 460.952047,107.105 C460.952047,102.203 462.091547,98.204 464.370547,95.108 C466.649547,92.012 469.552047,90.464 473.078047,90.464 C478.152047,90.464 481.764047,93.302 483.914047,98.978 L483.914047,98.978 L501.716047,93.173 C497.416047,79.413 487.784047,72.533 472.820047,72.533 C463.532047,72.533 456.071547,75.6505 450.438547,81.8855 C444.805547,88.1205 441.989047,96.527 441.989047,107.105 C441.989047,117.855 444.784047,126.283 450.374047,132.389 C455.964047,138.495 463.446047,141.548 472.820047,141.548 Z M527.713198,141.548 C533.647198,141.548 538.635198,140.559 542.677198,138.581 L542.677198,138.581 L544.741198,122.843 C540.957198,124.563 537.173198,125.423 533.389198,125.423 C532.357198,125.423 531.475698,125.1005 530.744698,124.4555 C530.013698,123.8105 529.648198,122.886 529.648198,121.682 L529.648198,121.682 L529.648198,90.464 L543.967198,90.464 L543.967198,74.081 L529.648198,74.081 L529.648198,46.862 L511.072198,55.763 L511.072198,74.081 L502.042198,74.081 L502.042198,90.464 L511.072198,90.464 L511.072198,123.488 C511.072198,135.528 516.619198,141.548 527.713198,141.548 Z M608.2165,141.29 C623.0945,141.29 634.1885,133.378 641.4985,117.554 L641.4985,117.554 L623.5675,110.846 C618.9235,118.586 613.8065,122.456 608.2165,122.456 C604.3465,122.456 601.014,121.0155 598.219,118.1345 C595.424,115.2535 593.446,111.792 592.285,107.75 C591.124,103.708 590.5435,99.408 590.5435,94.85 C590.5435,91.496 590.8445,88.2925 591.4465,85.2395 C592.0485,82.1865 592.9945,79.2625 594.2845,76.4675 C595.5745,73.6725 597.4235,71.4365 599.8315,69.7595 C602.2395,68.0825 605.0345,67.244 608.2165,67.244 C611.5705,67.244 614.387,68.104 616.666,69.824 C618.945,71.544 621.3315,74.253 623.8255,77.951 L623.8255,77.951 L641.3695,70.082 C638.9615,64.062 634.8765,58.945 629.1145,54.731 C623.3525,50.517 616.3865,48.41 608.2165,48.41 C601.5085,48.41 595.596,49.8505 590.479,52.7315 C585.362,55.6125 581.3845,59.3965 578.5465,64.0835 C575.7085,68.7705 573.6015,73.7155 572.2255,78.9185 C570.8495,84.1215 570.1615,89.432 570.1615,94.85 C570.1615,100.784 570.828,106.374 572.161,111.62 C573.494,116.866 575.5795,121.768 578.4175,126.326 C581.2555,130.884 585.233,134.5175 590.35,137.2265 C595.467,139.9355 601.4225,141.29 608.2165,141.29 Z M664.270651,140 L664.270651,104.396 C664.270651,95.194 668.140651,90.593 675.880651,90.593 C679.664651,90.593 682.352151,91.711 683.943151,93.947 C685.534151,96.183 686.329651,99.752 686.329651,104.654 L686.329651,104.654 L686.329651,140 L705.034651,140 L705.034651,97.172 C705.034651,88.486 702.755651,82.208 698.197651,78.338 C693.639651,74.468 688.307651,72.533 682.201651,72.533 C674.461651,72.533 668.484651,75.07 664.270651,80.144 L664.270651,80.144 L664.270651,46.862 L645.565651,55.505 L645.565651,140 L664.270651,140 Z M734.901802,141.548 C741.867802,141.548 747.328802,139.398 751.284802,135.098 L751.284802,135.098 L751.284802,140 L769.860802,140 L769.860802,98.333 C769.860802,81.133 760.529802,72.533 741.867802,72.533 C731.117802,72.533 721.700802,75.285 713.616802,80.789 L713.616802,80.789 L719.421802,95.108 C726.387802,90.464 733.439802,88.142 740.577802,88.142 C743.931802,88.142 746.554802,88.9375 748.446802,90.5285 C750.338802,92.1195 751.284802,94.42 751.284802,97.43 L751.284802,97.43 L751.284802,101.042 C747.844802,99.494 743.028802,98.72 736.836802,98.72 C729.698802,98.72 723.463802,100.5475 718.131802,104.2025 C712.799802,107.8575 710.133802,113.082 710.133802,119.876 C710.133802,126.842 712.434302,132.1955 717.035302,135.9365 C721.636302,139.6775 727.591802,141.548 734.901802,141.548 Z M738.513802,125.81 C731.805802,125.81 728.451802,123.875 728.451802,120.005 C728.451802,115.791 732.321802,113.684 740.061802,113.684 C744.103802,113.684 747.844802,114.2 751.284802,115.232 L751.284802,115.232 L751.284802,121.166 C747.414802,124.262 743.157802,125.81 738.513802,125.81 Z M796.889953,140 L796.889953,104.267 C796.889953,95.151 800.673953,90.593 808.241953,90.593 C812.455953,90.593 816.368953,92.098 819.980953,95.108 L819.980953,95.108 L822.431953,78.08 C818.905953,74.382 814.562953,72.533 809.402953,72.533 C806.392953,72.533 803.769953,73.35 801.533953,74.984 C799.297953,76.618 797.749953,78.295 796.889953,80.015 L796.889953,80.015 L796.889953,74.081 L778.184953,74.081 L778.184953,140 L796.889953,140 Z M843.914104,141.548 C849.848104,141.548 854.836104,140.559 858.878104,138.581 L858.878104,138.581 L860.942104,122.843 C857.158104,124.563 853.374104,125.423 849.590104,125.423 C848.558104,125.423 847.676604,125.1005 846.945604,124.4555 C846.214604,123.8105 845.849104,122.886 845.849104,121.682 L845.849104,121.682 L845.849104,90.464 L860.168104,90.464 L860.168104,74.081 L845.849104,74.081 L845.849104,46.862 L827.273104,55.763 L827.273104,74.081 L818.243104,74.081 L818.243104,90.464 L827.273104,90.464 L827.273104,123.488 C827.273104,135.528 832.820104,141.548 843.914104,141.548 Z M887.584255,141.548 C895.668255,141.548 902.096755,139.742 906.869755,136.13 C911.642755,132.518 914.029255,127.487 914.029255,121.037 C914.029255,117.769 913.405755,114.888 912.158755,112.394 C910.911755,109.9 909.084255,107.8145 906.676255,106.1375 C904.268255,104.4605 902.053755,103.1705 900.032755,102.2675 C898.011755,101.3645 895.453255,100.397 892.357255,99.365 C883.757255,97.215 879.457255,94.807 879.457255,92.141 C879.457255,89.303 882.037255,87.884 887.197255,87.884 C891.583255,87.884 895.797255,89.733 899.839255,93.431 L899.839255,93.431 L911.965255,83.498 C905.429255,76.188 897.173255,72.533 887.197255,72.533 C880.231255,72.533 874.404755,74.21 869.717755,77.564 C865.030755,80.918 862.687255,85.476 862.687255,91.238 C862.687255,96.914 864.536255,101.3215 868.234255,104.4605 C871.932255,107.5995 877.866255,110.545 886.036255,113.297 C890.336255,114.931 893.281755,116.2425 894.872755,117.2315 C896.463755,118.2205 897.259255,119.489 897.259255,121.037 C897.259255,124.477 894.206255,126.197 888.100255,126.197 C885.176255,126.197 882.295255,125.423 879.457255,123.875 C876.619255,122.327 874.297255,120.65 872.491255,118.844 L872.491255,118.844 L860.494255,129.035 C863.160255,132.819 866.987255,135.8505 871.975255,138.1295 C876.963255,140.4085 882.166255,141.548 887.584255,141.548 Z" id="ReactCharts" fill="#002C4B" fill-rule="nonzero"></path>
            <path d="M61.7239712,61.3436237 C58.631224,46.362877 57.9675112,34.8727722 59.9666331,26.5293551 C61.1555965,21.5671678 63.3293088,17.5190846 66.6346064,14.5984631 C70.1241394,11.5150478 74.5360327,10.0020122 79.493257,10.0020122 C87.6712013,10.0020122 96.2682602,13.7273214 105.455725,20.8044264 C109.20312,23.6910458 113.092437,27.170411 117.131651,31.2444746 C117.45314,30.8310265 117.816542,30.4410453 118.22143,30.0806152 C129.64098,19.9149716 139.255245,13.5989272 147.478408,11.1636507 C152.367899,9.715636 156.958526,9.57768202 161.138936,10.983031 C165.551631,12.4664684 169.06766,15.5329489 171.548314,19.8281091 C175.642288,26.9166735 176.721918,36.2310983 175.195595,47.7320243 C174.573451,52.4199112 173.50985,57.5263831 172.007094,63.0593153 C172.574045,63.1277086 173.142416,63.2532808 173.705041,63.4395297 C188.193932,68.2358678 198.453582,73.3937462 204.665021,79.2882839 C208.360669,82.7953831 210.773972,86.6998434 211.646365,91.0218204 C212.567176,95.5836746 211.669313,100.159332 209.191548,104.451297 C205.105211,111.529614 197.591643,117.11221 186.887587,121.534031 C182.589552,123.309539 177.726579,124.917559 172.293259,126.363748 C172.541176,126.92292 172.733521,127.516759 172.862138,128.139758 C175.954886,143.120505 176.618598,154.61061 174.619477,162.954027 C173.430513,167.916214 171.256801,171.964297 167.951503,174.884919 C164.46197,177.968334 160.050077,179.48137 155.092853,179.48137 C146.914908,179.48137 138.31785,175.756061 129.130385,168.678956 C125.343104,165.761613 121.410866,162.238839 117.325434,158.108619 C116.905075,158.765474 116.388968,159.376011 115.77857,159.919385 C104.35902,170.085028 94.744755,176.401073 86.5215915,178.836349 C81.6321009,180.284364 77.0414736,180.422318 72.8610636,179.016969 C68.4483686,177.533532 64.9323404,174.467051 62.4516862,170.171891 C58.3577116,163.083327 57.2780823,153.768902 58.8044053,142.267976 C59.449038,137.410634 60.56762,132.103898 62.1575891,126.339009 C61.5361041,126.276104 60.9120754,126.144816 60.2949591,125.940529 C45.8060684,121.144191 35.5464184,115.986312 29.3349789,110.091775 C25.6393312,106.584675 23.2260275,102.680215 22.3536352,98.3582381 C21.4328237,93.7963839 22.3306866,89.2207269 24.8084524,84.9287618 C28.8947886,77.8504443 36.4083565,72.2678481 47.1124133,67.8460273 C51.5385143,66.0176154 56.5637208,64.366822 62.1939394,62.8874674 C61.9933393,62.3969171 61.8349374,61.8811235 61.7239712,61.3436237 Z" id="Path" fill="#002C4B" fill-rule="nonzero" transform="translate(117.000000, 95.000000) scale(-1, 1) translate(-117.000000, -95.000000) "></path>
            <path d="M131.8435,65 C133.634576,65 135.288844,65.958025 136.180256,67.5115174 L150.812461,93.0115174 C151.696786,94.5526583 151.696786,96.4473417 150.812461,97.9884826 L143.235,111.193 L143.235323,91.7391304 C143.235323,88.9777067 140.996746,86.7391304 138.235323,86.7391304 C135.473899,86.7391304 133.235323,88.9777067 133.235323,91.7391304 L133.235371,125.802477 C132.789059,125.931867 132.321144,126 131.8435,126 L129.235,126 L129.235323,111.73913 C129.235323,108.977707 126.996746,106.73913 124.235323,106.73913 C121.473899,106.73913 119.235323,108.977707 119.235323,111.73913 L119.235,126 L115.235,126 L115.235323,77.7391304 C115.235323,74.9777067 112.996746,72.7391304 110.235323,72.7391304 C107.473899,72.7391304 105.235323,74.9777067 105.235323,77.7391304 L105.235,126 L102.632205,126 C102.152766,126 101.683131,125.931354 101.235306,125.801016 L101.235323,96.7391304 C101.235323,93.9777067 98.9967465,91.7391304 96.2353227,91.7391304 C93.473899,91.7391304 91.2353227,93.9777067 91.2353227,96.7391304 L91.235,111.184 L83.6632438,97.9884826 C82.7789187,96.4473417 82.7789187,94.5526583 83.6632438,93.0115174 L98.2954489,67.5115174 C99.1868614,65.958025 100.841129,65 102.632205,65 L131.8435,65 Z" id="Polygon-2" fill="#FFD94C"></path>
            <path d="M76.8601729,108.357758 C78.1715224,107.608286 79.8360246,108.074601 80.5779424,109.399303 L80.5779424,109.399303 L81.0525843,110.24352 C84.8563392,116.982993 88.8190116,123.380176 92.9406016,129.435068 C97.8078808,136.585427 103.28184,143.82411 109.362479,151.151115 C110.316878,152.30114 110.184944,154.011176 109.065686,154.997937 L109.065686,154.997937 L108.454208,155.534625 C88.3465389,173.103314 75.2778188,176.612552 69.2480482,166.062341 C63.3500652,155.742717 65.4844915,136.982888 75.6513274,109.782853 C75.876818,109.179582 76.3045861,108.675291 76.8601729,108.357758 Z M162.534177,129.041504 C163.986131,128.785177 165.375496,129.742138 165.65963,131.194242 L165.65963,131.194242 L165.812815,131.986376 C170.782365,157.995459 167.283348,171 155.315764,171 C143.609745,171 128.708724,159.909007 110.612702,137.727022 C110.211349,137.235047 109.994572,136.617371 110,135.981509 C110.013158,134.480686 111.235785,133.274651 112.730918,133.287756 L112.730918,133.287756 L113.684654,133.294531 C121.305698,133.335994 128.714387,133.071591 135.910723,132.501323 C144.409039,131.82788 153.283523,130.674607 162.534177,129.041504 Z M169.408726,73.8119663 C169.932139,72.4026903 171.508386,71.6634537 172.954581,72.149012 L172.954581,72.149012 L173.742552,72.4154854 C199.583763,81.217922 209.402356,90.8916805 203.198332,101.436761 C197.129904,111.751366 179.484347,119.260339 150.26166,123.963678 C149.613529,124.067994 148.948643,123.945969 148.382735,123.618843 C147.047025,122.846729 146.602046,121.158214 147.388848,119.847438 L147.388848,119.847438 L147.889328,119.0105 C151.877183,112.31633 155.481358,105.654262 158.701854,99.0242957 C162.50501,91.1948179 166.073967,82.7907081 169.408726,73.8119663 Z M83.7383398,66.0363218 C84.3864708,65.9320063 85.0513565,66.0540315 85.6172646,66.3811573 C86.9529754,67.153271 87.3979538,68.8417862 86.6111517,70.1525615 L86.6111517,70.1525615 L86.1106718,70.9895001 C82.1228168,77.6836699 78.5186416,84.3457379 75.2981462,90.9757043 C71.49499,98.8051821 67.9260328,107.209292 64.5912744,116.188034 C64.0678608,117.59731 62.4916142,118.336546 61.045419,117.850988 L61.045419,117.850988 L60.2574475,117.584515 C34.4162372,108.782078 24.597644,99.1083195 30.8016679,88.5632391 C36.8700957,78.2486335 54.515653,70.7396611 83.7383398,66.0363218 Z M125.545792,34.4653746 C145.653461,16.8966864 158.722181,13.3874478 164.751952,23.9376587 C170.649935,34.2572826 168.515508,53.0171122 158.348673,80.2171474 C158.123182,80.8204179 157.695414,81.324709 157.139827,81.6422422 C155.828478,82.3917144 154.163975,81.9253986 153.422058,80.6006966 L153.422058,80.6006966 L152.947416,79.7564798 C149.143661,73.0170065 145.180988,66.6198239 141.059398,60.564932 C136.192119,53.4145727 130.71816,46.1758903 124.637521,38.8488847 C123.683122,37.6988602 123.815056,35.9888243 124.934314,35.0020629 L124.934314,35.0020629 Z M79.6842361,18 C91.3902551,18 106.291276,29.0909926 124.387298,51.2729777 C124.788651,51.7649527 125.005428,52.3826288 125,53.0184911 C124.986842,54.5193144 123.764215,55.7253489 122.269082,55.7122445 L122.269082,55.7122445 L121.315346,55.7054689 C113.694302,55.6640063 106.285613,55.9284091 99.0892772,56.4986773 C90.5909612,57.17212 81.7164767,58.325393 72.4658235,59.9584962 C71.0138691,60.2148231 69.6245044,59.2578618 69.3403697,57.805758 L69.3403697,57.805758 L69.1871846,57.0136235 C64.2176347,31.0045412 67.7166519,18 79.6842361,18 Z" id="Combined-Shape" fill="#FF4154"></path>
        </g>
    </g>
</svg>